<!--?xml version="1.0" encoding="UTF-8" standalone="no"?-->

<svg width="100%" height="100%" viewBox="0 0 5000 5000" version="1.1" xmlns="http://www.w3.org/2000/svg" xmlns:xlink="http://www.w3.org/1999/xlink" xml:space="preserve" xmlns:serif="http://www.serif.com/" style="fill-rule: evenodd; clip-rule: evenodd; stroke-linejoin: round; stroke-miterlimit: 2;">
    <g transform="matrix(1,0,0,1,-0.954948,-20547.8)">
        <g id="Artboard1" transform="matrix(1,0,0,1,0.954948,20547.8)">
            <path width="5000" height="5000" style="fill:none;" d="M0 0 L5000 0 L5000 5000 L0 5000 Z" class="xHuyGuzW_0"></path>
            <g>
                <g transform="matrix(1.32587,0,0,6.65032,-7007.61,-14507.3)">
                    <path d="M7045.44,2375.94L6603.26,2375.94L6487.12,2395.22L6603.26,2410.44L6598.78,2410.44C6598.78,2410.44 6563.2,2427.33 6566.65,2445.49C6570.22,2464.32 6615.7,2484.51 6786.11,2488.7L6487.12,2566.97L7734.7,2566.97L7854.59,2549.23L7734.7,2531.02L7246.82,2531.02L7246.82,2488.07L7586.34,2488.07L7734.7,2471.73L7586.34,2455.44L7246.82,2455.44L7246.82,2410.44L7734.7,2410.44L7854.59,2392.89L7734.7,2375.94L7246.82,2375.94L7246.82,2315.98L7150.23,2272.09L7045.44,2315.98L7045.44,2375.94Z" style="fill:none;stroke:black;stroke-width:11.47px;" class="xHuyGuzW_1"></path>
                </g>
                <g transform="matrix(1,0,0,1,0,493.809)">
                    <g transform="matrix(2.02457,0,0,2.02457,-12051.3,-2233.73)">
                        <path d="M7466.17,2554.83L7552.17,2306.83L7496.17,2306.83L7437.77,2475.63L7379.37,2306.83L7323.37,2306.83L7409.37,2554.83L7466.17,2554.83Z" style="fill:none;stroke:black;stroke-width:19.21px;" class="xHuyGuzW_2"></path>
                    </g>
                    <g transform="matrix(2.02457,0,0,2.02457,-12051.3,-2233.73)">
                        <path d="M6586.57,2362.83L6586.57,2306.83L6434.57,2306.83L6434.57,2554.83L6586.57,2554.83L6586.57,2498.83L6490.57,2498.83L6490.57,2458.83L6561.37,2458.83L6561.37,2402.83L6490.57,2402.83L6490.57,2362.83L6586.57,2362.83Z" style="fill:none;stroke:black;stroke-width:19.21px;" class="xHuyGuzW_3"></path>
                    </g>
                    <g transform="matrix(2.02457,0,0,2.02457,-12051.3,-2233.73)">
                        <path d="M7038.57,2554.83L7098.97,2554.83L7012.97,2306.83L6951.77,2306.83L6865.77,2554.83L6925.77,2554.83L6959.37,2458.83L7005.37,2458.83L7038.57,2554.83Z" style="fill:none;stroke:black;stroke-width:19.21px;" class="xHuyGuzW_4"></path>
                    </g>
                    <g transform="matrix(2.02457,0,0,2.02457,-12051.3,-2233.73)">
                        <path d="M7762.97,2307.23L7706.97,2307.23L7706.97,2455.63C7706.97,2461.76 7705.9,2467.5 7703.77,2472.83C7701.63,2478.16 7698.77,2482.83 7695.17,2486.83C7691.57,2490.83 7687.37,2493.97 7682.57,2496.23C7677.77,2498.5 7672.57,2499.63 7666.97,2499.63C7661.37,2499.63 7656.1,2498.5 7651.17,2496.23C7646.23,2493.97 7641.97,2490.83 7638.37,2486.83C7634.77,2482.83 7631.9,2478.16 7629.77,2472.83C7627.63,2467.5 7626.57,2461.76 7626.57,2455.63L7626.57,2307.23L7570.57,2307.23L7570.57,2456.83C7570.83,2469.9 7573.3,2482.37 7577.97,2494.23C7582.63,2506.1 7589.37,2516.7 7598.17,2526.03C7607.5,2535.37 7617.97,2542.63 7629.57,2547.83C7641.17,2553.03 7653.5,2555.63 7666.57,2555.63L7666.97,2555.63C7680.03,2555.63 7692.37,2553.03 7703.97,2547.83C7715.57,2542.63 7726.03,2535.37 7735.37,2526.03C7744.17,2516.7 7750.9,2506.1 7755.57,2494.23C7760.23,2482.37 7762.7,2469.9 7762.97,2456.83L7762.97,2307.23Z" style="fill:none;stroke:black;stroke-width:19.21px;" class="xHuyGuzW_5"></path>
                    </g>
                    <g transform="matrix(-2.02457,0,0,2.02457,19788.6,-2233.73)">
                        <path d="M7942.17,2554.83L7894.97,2452.43C7907.77,2446.3 7918.03,2437.16 7925.77,2425.03C7933.5,2412.9 7937.37,2399.23 7937.37,2384.03C7937.37,2373.37 7935.3,2363.37 7931.17,2354.03C7927.03,2344.7 7921.5,2336.5 7914.57,2329.43C7907.63,2322.37 7899.5,2316.83 7890.17,2312.83C7880.83,2308.83 7870.83,2306.83 7860.17,2306.83L7784.57,2306.83L7784.57,2554.83L7840.57,2554.83L7840.57,2460.83L7840.97,2460.83L7884.17,2554.83L7942.17,2554.83Z" style="fill:none;stroke:black;stroke-width:19.21px;" class="xHuyGuzW_6"></path>
                    </g>
                    <g transform="matrix(2.02457,0,0,2.02457,-12051.3,-2233.73)">
                        <path d="M7304.17,2554.83L7304.17,2306.83L7248.17,2306.83L7248.17,2445.23L7178.57,2306.83L7121.37,2306.83L7121.37,2554.83L7177.37,2554.83L7177.37,2416.43L7247.37,2554.83L7304.17,2554.83Z" style="fill:none;stroke:black;stroke-width:19.21px;" class="xHuyGuzW_7"></path>
                    </g>
                    <g transform="matrix(2.02457,0,0,2.02457,-12051.3,-2233.73)">
                        <path d="M6843.37,2307.23L6843.77,2306.83L6787.37,2306.83L6787.37,2307.23L6729.37,2474.43L6671.37,2306.83L6614.57,2306.83L6614.57,2554.83L6670.57,2554.83L6670.57,2465.63L6701.37,2554.83L6757.37,2554.83L6787.37,2468.43L6787.37,2554.83L6843.37,2554.83L6843.37,2307.23Z" style="fill:none;stroke:black;stroke-width:19.21px;" class="xHuyGuzW_8"></path>
                    </g>
                </g>
                <g transform="matrix(1,0,0,1,-561.457,-12301.9)">
                    <g transform="matrix(400,0,0,400,1055.26,16149.1)">
                        <path d="M0.575,-0.306C0.575,-0.294 0.573,-0.283 0.569,-0.271C0.564,-0.26 0.557,-0.248 0.546,-0.235C0.532,-0.217 0.515,-0.194 0.494,-0.166C0.482,-0.15 0.475,-0.14 0.472,-0.136L0.452,-0.059C0.447,-0.044 0.439,-0.031 0.428,-0.02C0.417,-0.01 0.401,0 0.38,0.009L0.257,-0.176C0.226,-0.223 0.211,-0.258 0.211,-0.279C0.211,-0.291 0.215,-0.302 0.224,-0.311C0.232,-0.32 0.246,-0.328 0.266,-0.336C0.272,-0.321 0.28,-0.3 0.291,-0.274C0.3,-0.253 0.308,-0.234 0.315,-0.218C0.334,-0.18 0.356,-0.152 0.381,-0.134L0.454,-0.237C0.473,-0.265 0.49,-0.287 0.504,-0.304C0.52,-0.32 0.536,-0.334 0.554,-0.344C0.568,-0.332 0.575,-0.32 0.575,-0.306ZM0.281,-0.048C0.281,-0.035 0.275,-0.025 0.263,-0.017C0.257,-0.014 0.251,-0.011 0.246,-0.009C0.241,-0.007 0.234,-0.006 0.226,-0.006C0.217,-0.006 0.208,-0.009 0.2,-0.014C0.192,-0.019 0.184,-0.026 0.177,-0.036C0.163,-0.053 0.134,-0.096 0.089,-0.163C0.04,-0.24 0.016,-0.282 0.016,-0.29C0.016,-0.306 0.029,-0.314 0.055,-0.314C0.06,-0.314 0.067,-0.313 0.074,-0.311C0.081,-0.309 0.089,-0.303 0.099,-0.293C0.104,-0.288 0.109,-0.282 0.112,-0.278C0.115,-0.273 0.119,-0.265 0.124,-0.256C0.129,-0.247 0.133,-0.239 0.136,-0.233C0.139,-0.227 0.142,-0.222 0.143,-0.217C0.15,-0.203 0.157,-0.191 0.166,-0.182C0.193,-0.158 0.215,-0.137 0.231,-0.12C0.264,-0.089 0.281,-0.065 0.281,-0.048Z" style="fill:none;fill-rule:nonzero;stroke:black;stroke-width:0.04px;" class="xHuyGuzW_9"></path>
                    </g>
                    <g transform="matrix(400,0,0,400,1285.66,16149.1)">
                        <path d="M0.401,-0.025C0.39,-0.02 0.378,-0.017 0.365,-0.014C0.352,-0.011 0.338,-0.008 0.323,-0.005C0.293,-0.002 0.259,-0 0.222,-0L0.12,-0C0.113,-0.001 0.108,-0.001 0.105,-0.002C0.102,-0.003 0.097,-0.005 0.09,-0.008C0.066,-0.019 0.046,-0.051 0.031,-0.103C0.025,-0.127 0.02,-0.15 0.016,-0.172C0.012,-0.194 0.01,-0.212 0.01,-0.226C0.01,-0.239 0.01,-0.249 0.011,-0.254C0.012,-0.259 0.015,-0.268 0.02,-0.283C0.025,-0.297 0.037,-0.312 0.054,-0.326C0.063,-0.322 0.073,-0.318 0.082,-0.314C0.09,-0.309 0.098,-0.305 0.106,-0.301C0.121,-0.292 0.135,-0.288 0.148,-0.288C0.158,-0.288 0.167,-0.289 0.175,-0.29C0.184,-0.291 0.195,-0.292 0.208,-0.295C0.235,-0.301 0.256,-0.304 0.269,-0.304C0.3,-0.304 0.324,-0.288 0.341,-0.255C0.332,-0.25 0.321,-0.247 0.306,-0.244C0.291,-0.241 0.272,-0.238 0.249,-0.236C0.196,-0.23 0.163,-0.218 0.151,-0.2L0.165,-0.199L0.308,-0.199C0.314,-0.199 0.32,-0.199 0.327,-0.198C0.334,-0.197 0.343,-0.196 0.354,-0.193C0.339,-0.151 0.307,-0.13 0.26,-0.13L0.216,-0.13L0.185,-0.133C0.159,-0.133 0.146,-0.123 0.146,-0.102C0.146,-0.078 0.18,-0.066 0.249,-0.066C0.288,-0.066 0.32,-0.063 0.344,-0.056C0.368,-0.049 0.387,-0.039 0.401,-0.025Z" style="fill:none;fill-rule:nonzero;stroke:black;stroke-width:0.04px;" class="xHuyGuzW_10"></path>
                    </g>
                    <g transform="matrix(400,0,0,400,1639.26,16149.1)">
                        <path d="M0.315,-0.189C0.315,-0.155 0.297,-0.115 0.26,-0.069C0.22,-0.017 0.181,0.009 0.144,0.009C0.13,0.009 0.118,0.002 0.107,-0.012C0.105,-0.016 0.103,-0.021 0.101,-0.028C0.099,-0.034 0.098,-0.042 0.098,-0.051C0.098,-0.064 0.099,-0.072 0.101,-0.076L0.107,-0.096C0.12,-0.093 0.129,-0.091 0.134,-0.09C0.139,-0.089 0.145,-0.088 0.152,-0.088C0.175,-0.088 0.193,-0.096 0.208,-0.113C0.223,-0.13 0.23,-0.148 0.23,-0.169C0.23,-0.18 0.221,-0.186 0.204,-0.186C0.189,-0.186 0.173,-0.184 0.154,-0.179C0.107,-0.166 0.076,-0.159 0.061,-0.159C0.045,-0.159 0.032,-0.162 0.023,-0.168C0.01,-0.177 0.004,-0.188 0.004,-0.201C0.004,-0.216 0.034,-0.259 0.093,-0.33C0.156,-0.405 0.202,-0.442 0.232,-0.442C0.239,-0.442 0.245,-0.441 0.251,-0.44C0.256,-0.438 0.264,-0.434 0.275,-0.427C0.252,-0.405 0.233,-0.385 0.216,-0.367C0.204,-0.354 0.193,-0.342 0.183,-0.33C0.17,-0.314 0.159,-0.299 0.15,-0.285C0.141,-0.272 0.133,-0.258 0.127,-0.245L0.167,-0.249L0.221,-0.253C0.249,-0.253 0.271,-0.249 0.287,-0.24C0.306,-0.232 0.315,-0.215 0.315,-0.189Z" style="fill:none;fill-rule:nonzero;stroke:black;stroke-width:0.04px;" class="xHuyGuzW_11"></path>
                    </g>
                    <g transform="matrix(400,0,0,400,1761.26,16149.1)">
                        <path d="M0.37,-0.048C0.37,-0.036 0.367,-0.027 0.362,-0.022C0.358,-0.013 0.348,-0.009 0.332,-0.009C0.321,-0.009 0.301,-0.016 0.272,-0.029C0.249,-0.042 0.222,-0.048 0.192,-0.048C0.177,-0.048 0.162,-0.047 0.149,-0.044C0.135,-0.041 0.122,-0.037 0.11,-0.031C0.097,-0.025 0.084,-0.019 0.07,-0.013C0.056,-0.008 0.043,-0.003 0.03,0C0.023,-0.013 0.02,-0.026 0.02,-0.04C0.02,-0.054 0.035,-0.114 0.067,-0.217C0.098,-0.321 0.116,-0.377 0.122,-0.384C0.127,-0.391 0.138,-0.395 0.154,-0.395C0.166,-0.395 0.175,-0.394 0.182,-0.391C0.189,-0.388 0.193,-0.385 0.196,-0.384C0.198,-0.383 0.202,-0.379 0.209,-0.374C0.223,-0.363 0.253,-0.31 0.3,-0.213C0.347,-0.117 0.37,-0.062 0.37,-0.048ZM0.249,-0.119C0.245,-0.145 0.235,-0.172 0.218,-0.199C0.204,-0.219 0.185,-0.241 0.162,-0.264L0.13,-0.187C0.125,-0.172 0.123,-0.153 0.123,-0.133C0.123,-0.114 0.136,-0.105 0.161,-0.105L0.189,-0.105L0.249,-0.119Z" style="fill:none;fill-rule:nonzero;stroke:black;stroke-width:0.04px;" class="xHuyGuzW_12"></path>
                    </g>
                    <g transform="matrix(400,0,0,400,1910.06,16149.1)">
                        <path d="M0.441,-0.063C0.441,-0.055 0.433,-0.046 0.416,-0.038C0.399,-0.029 0.376,-0.023 0.345,-0.018C0.282,-0.009 0.209,-0.005 0.124,-0.005C0.091,-0.005 0.066,-0.009 0.049,-0.017C0.025,-0.028 0.013,-0.047 0.013,-0.074C0.013,-0.083 0.014,-0.09 0.015,-0.094C0.016,-0.099 0.018,-0.104 0.023,-0.111C0.027,-0.118 0.03,-0.123 0.033,-0.127C0.038,-0.134 0.043,-0.14 0.048,-0.145C0.072,-0.168 0.122,-0.204 0.198,-0.252C0.239,-0.279 0.272,-0.299 0.299,-0.314C0.326,-0.328 0.348,-0.338 0.367,-0.344L0.38,-0.316L0.386,-0.295C0.386,-0.285 0.382,-0.276 0.375,-0.266C0.372,-0.264 0.369,-0.261 0.366,-0.258C0.362,-0.255 0.356,-0.251 0.347,-0.246L0.208,-0.171C0.165,-0.143 0.131,-0.113 0.106,-0.08C0.137,-0.071 0.166,-0.067 0.193,-0.067C0.217,-0.067 0.248,-0.072 0.285,-0.081C0.303,-0.085 0.321,-0.09 0.34,-0.095C0.358,-0.101 0.377,-0.106 0.396,-0.113C0.409,-0.113 0.42,-0.107 0.428,-0.094C0.437,-0.084 0.441,-0.073 0.441,-0.063Z" style="fill:none;fill-rule:nonzero;stroke:black;stroke-width:0.04px;" class="xHuyGuzW_13"></path>
                    </g>
                    <g transform="matrix(400,0,0,400,2082.06,16149.1)">
                        <path d="M0.519,0.001L0.492,0.001L0.457,-0.002L0.406,-0.064C0.389,-0.083 0.367,-0.092 0.34,-0.092C0.322,-0.092 0.304,-0.091 0.286,-0.089C0.263,-0.085 0.244,-0.082 0.23,-0.08C0.179,-0.075 0.152,-0.07 0.147,-0.065C0.144,-0.058 0.141,-0.052 0.139,-0.046C0.136,-0.039 0.133,-0.033 0.13,-0.028C0.12,-0.009 0.105,0.001 0.085,0.001C0.064,0.001 0.047,-0.021 0.033,-0.065C0.022,-0.106 0.016,-0.156 0.016,-0.214C0.016,-0.22 0.017,-0.226 0.02,-0.232C0.023,-0.237 0.026,-0.242 0.03,-0.247C0.037,-0.251 0.081,-0.258 0.162,-0.267L0.3,-0.281C0.324,-0.281 0.349,-0.278 0.374,-0.273C0.411,-0.263 0.43,-0.248 0.43,-0.228C0.43,-0.222 0.427,-0.215 0.42,-0.206C0.413,-0.198 0.403,-0.189 0.388,-0.178L0.357,-0.154C0.403,-0.145 0.439,-0.132 0.466,-0.114C0.483,-0.102 0.497,-0.086 0.505,-0.068C0.515,-0.049 0.519,-0.027 0.519,0.001ZM0.3,-0.214L0.28,-0.216L0.239,-0.217C0.202,-0.217 0.172,-0.214 0.149,-0.209C0.114,-0.203 0.096,-0.191 0.096,-0.172C0.096,-0.164 0.1,-0.157 0.108,-0.15C0.116,-0.142 0.128,-0.139 0.143,-0.139C0.166,-0.139 0.197,-0.149 0.236,-0.169C0.267,-0.184 0.288,-0.199 0.3,-0.214Z" style="fill:none;fill-rule:nonzero;stroke:black;stroke-width:0.04px;" class="xHuyGuzW_14"></path>
                    </g>
                    <g transform="matrix(400,0,0,400,2285.66,16149.1)">
                        <path d="M0.136,-0.012C0.104,-0.007 0.085,-0.003 0.078,-0.002L0.034,0.001C0.034,-0.008 0.033,-0.024 0.032,-0.045C0.031,-0.066 0.03,-0.079 0.03,-0.082L0.03,-0.136C0.03,-0.177 0.032,-0.209 0.036,-0.232C0.04,-0.256 0.047,-0.275 0.055,-0.291C0.063,-0.307 0.075,-0.322 0.09,-0.336C0.106,-0.303 0.116,-0.275 0.119,-0.251C0.122,-0.228 0.124,-0.201 0.124,-0.17L0.124,-0.066C0.124,-0.057 0.125,-0.05 0.126,-0.045C0.127,-0.039 0.131,-0.028 0.136,-0.012Z" style="fill:none;fill-rule:nonzero;stroke:black;stroke-width:0.04px;" class="xHuyGuzW_15"></path>
                    </g>
                    <g transform="matrix(400,0,0,400,2340.06,16149.1)">
                        <path d="M0.374,-0.239C0.369,-0.193 0.33,-0.161 0.259,-0.143L0.113,-0.124L0.119,-0.101C0.124,-0.086 0.126,-0.074 0.126,-0.063C0.126,-0.053 0.125,-0.045 0.122,-0.038C0.118,-0.032 0.113,-0.026 0.105,-0.019C0.096,-0.013 0.078,-0.006 0.049,0C0.046,-0.014 0.042,-0.034 0.037,-0.06C0.032,-0.086 0.029,-0.104 0.027,-0.114C0.022,-0.147 0.02,-0.18 0.02,-0.212C0.02,-0.26 0.023,-0.289 0.029,-0.3C0.034,-0.311 0.052,-0.317 0.082,-0.317L0.125,-0.316C0.142,-0.316 0.161,-0.318 0.182,-0.323C0.237,-0.336 0.27,-0.342 0.281,-0.342C0.297,-0.342 0.311,-0.339 0.323,-0.334C0.335,-0.328 0.346,-0.317 0.357,-0.302C0.323,-0.297 0.289,-0.291 0.255,-0.286C0.208,-0.278 0.176,-0.27 0.159,-0.263C0.12,-0.249 0.1,-0.234 0.1,-0.219C0.1,-0.209 0.105,-0.202 0.116,-0.198C0.126,-0.194 0.139,-0.192 0.154,-0.192C0.174,-0.192 0.199,-0.195 0.228,-0.201C0.233,-0.201 0.281,-0.214 0.374,-0.239Z" style="fill:none;fill-rule:nonzero;stroke:black;stroke-width:0.04px;" class="xHuyGuzW_16"></path>
                    </g>
                    <g transform="matrix(400,0,0,400,2484.86,16149.1)">
                        <path d="M0.136,-0.012C0.104,-0.007 0.085,-0.003 0.078,-0.002L0.034,0.001C0.034,-0.008 0.033,-0.024 0.032,-0.045C0.031,-0.066 0.03,-0.079 0.03,-0.082L0.03,-0.136C0.03,-0.177 0.032,-0.209 0.036,-0.232C0.04,-0.256 0.047,-0.275 0.055,-0.291C0.063,-0.307 0.075,-0.322 0.09,-0.336C0.106,-0.303 0.116,-0.275 0.119,-0.251C0.122,-0.228 0.124,-0.201 0.124,-0.17L0.124,-0.066C0.124,-0.057 0.125,-0.05 0.126,-0.045C0.127,-0.039 0.131,-0.028 0.136,-0.012Z" style="fill:none;fill-rule:nonzero;stroke:black;stroke-width:0.04px;" class="xHuyGuzW_17"></path>
                    </g>
                    <g transform="matrix(400,0,0,400,2539.26,16149.1)">
                        <path d="M0.441,-0.063C0.441,-0.055 0.433,-0.046 0.416,-0.038C0.399,-0.029 0.376,-0.023 0.345,-0.018C0.282,-0.009 0.209,-0.005 0.124,-0.005C0.091,-0.005 0.066,-0.009 0.049,-0.017C0.025,-0.028 0.013,-0.047 0.013,-0.074C0.013,-0.083 0.014,-0.09 0.015,-0.094C0.016,-0.099 0.018,-0.104 0.023,-0.111C0.027,-0.118 0.03,-0.123 0.033,-0.127C0.038,-0.134 0.043,-0.14 0.048,-0.145C0.072,-0.168 0.122,-0.204 0.198,-0.252C0.239,-0.279 0.272,-0.299 0.299,-0.314C0.326,-0.328 0.348,-0.338 0.367,-0.344L0.38,-0.316L0.386,-0.295C0.386,-0.285 0.382,-0.276 0.375,-0.266C0.372,-0.264 0.369,-0.261 0.366,-0.258C0.362,-0.255 0.356,-0.251 0.347,-0.246L0.208,-0.171C0.165,-0.143 0.131,-0.113 0.106,-0.08C0.137,-0.071 0.166,-0.067 0.193,-0.067C0.217,-0.067 0.248,-0.072 0.285,-0.081C0.303,-0.085 0.321,-0.09 0.34,-0.095C0.358,-0.101 0.377,-0.106 0.396,-0.113C0.409,-0.113 0.42,-0.107 0.428,-0.094C0.437,-0.084 0.441,-0.073 0.441,-0.063Z" style="fill:none;fill-rule:nonzero;stroke:black;stroke-width:0.04px;" class="xHuyGuzW_18"></path>
                    </g>
                    <g transform="matrix(400,0,0,400,2711.26,16149.1)">
                        <path d="M0.401,-0.025C0.39,-0.02 0.378,-0.017 0.365,-0.014C0.352,-0.011 0.338,-0.008 0.323,-0.005C0.293,-0.002 0.259,-0 0.222,-0L0.12,-0C0.113,-0.001 0.108,-0.001 0.105,-0.002C0.102,-0.003 0.097,-0.005 0.09,-0.008C0.066,-0.019 0.046,-0.051 0.031,-0.103C0.025,-0.127 0.02,-0.15 0.016,-0.172C0.012,-0.194 0.01,-0.212 0.01,-0.226C0.01,-0.239 0.01,-0.249 0.011,-0.254C0.012,-0.259 0.015,-0.268 0.02,-0.283C0.025,-0.297 0.037,-0.312 0.054,-0.326C0.063,-0.322 0.073,-0.318 0.082,-0.314C0.09,-0.309 0.098,-0.305 0.106,-0.301C0.121,-0.292 0.135,-0.288 0.148,-0.288C0.158,-0.288 0.167,-0.289 0.175,-0.29C0.184,-0.291 0.195,-0.292 0.208,-0.295C0.235,-0.301 0.256,-0.304 0.269,-0.304C0.3,-0.304 0.324,-0.288 0.341,-0.255C0.332,-0.25 0.321,-0.247 0.306,-0.244C0.291,-0.241 0.272,-0.238 0.249,-0.236C0.196,-0.23 0.163,-0.218 0.151,-0.2L0.165,-0.199L0.308,-0.199C0.314,-0.199 0.32,-0.199 0.327,-0.198C0.334,-0.197 0.343,-0.196 0.354,-0.193C0.339,-0.151 0.307,-0.13 0.26,-0.13L0.216,-0.13L0.185,-0.133C0.159,-0.133 0.146,-0.123 0.146,-0.102C0.146,-0.078 0.18,-0.066 0.249,-0.066C0.288,-0.066 0.32,-0.063 0.344,-0.056C0.368,-0.049 0.387,-0.039 0.401,-0.025Z" style="fill:none;fill-rule:nonzero;stroke:black;stroke-width:0.04px;" class="xHuyGuzW_19"></path>
                    </g>
                    <g transform="matrix(400,0,0,400,3064.86,16149.1)">
                        <path d="M0.48,-0.178C0.48,-0.141 0.427,-0.1 0.32,-0.057C0.271,-0.039 0.229,-0.025 0.193,-0.016C0.157,-0.007 0.127,-0.002 0.102,-0.002C0.083,-0.002 0.07,-0.009 0.063,-0.024C0.062,-0.029 0.06,-0.035 0.059,-0.043C0.058,-0.05 0.057,-0.058 0.057,-0.065L0.057,-0.204C0.057,-0.211 0.052,-0.224 0.043,-0.243C0.036,-0.254 0.032,-0.262 0.029,-0.266C0.024,-0.275 0.021,-0.282 0.018,-0.288C0.021,-0.302 0.028,-0.31 0.039,-0.313C0.049,-0.315 0.062,-0.316 0.079,-0.316C0.118,-0.316 0.156,-0.314 0.193,-0.31C0.229,-0.306 0.267,-0.299 0.308,-0.289C0.423,-0.261 0.48,-0.224 0.48,-0.178ZM0.391,-0.186C0.391,-0.2 0.363,-0.213 0.306,-0.224C0.249,-0.234 0.205,-0.24 0.175,-0.24C0.148,-0.24 0.134,-0.228 0.134,-0.205C0.134,-0.194 0.134,-0.184 0.135,-0.175C0.136,-0.166 0.137,-0.156 0.14,-0.146L0.153,-0.093C0.192,-0.098 0.219,-0.103 0.235,-0.106C0.252,-0.109 0.267,-0.113 0.28,-0.116C0.293,-0.118 0.306,-0.123 0.319,-0.129C0.332,-0.134 0.344,-0.14 0.356,-0.147C0.358,-0.148 0.362,-0.151 0.367,-0.155C0.372,-0.159 0.375,-0.163 0.378,-0.166C0.387,-0.173 0.391,-0.18 0.391,-0.186Z" style="fill:none;fill-rule:nonzero;stroke:black;stroke-width:0.04px;" class="xHuyGuzW_20"></path>
                    </g>
                    <g transform="matrix(400,0,0,400,3254.46,16149.1)">
                        <path d="M0.37,-0.048C0.37,-0.036 0.367,-0.027 0.362,-0.022C0.358,-0.013 0.348,-0.009 0.332,-0.009C0.321,-0.009 0.301,-0.016 0.272,-0.029C0.249,-0.042 0.222,-0.048 0.192,-0.048C0.177,-0.048 0.162,-0.047 0.149,-0.044C0.135,-0.041 0.122,-0.037 0.11,-0.031C0.097,-0.025 0.084,-0.019 0.07,-0.013C0.056,-0.008 0.043,-0.003 0.03,0C0.023,-0.013 0.02,-0.026 0.02,-0.04C0.02,-0.054 0.035,-0.114 0.067,-0.217C0.098,-0.321 0.116,-0.377 0.122,-0.384C0.127,-0.391 0.138,-0.395 0.154,-0.395C0.166,-0.395 0.175,-0.394 0.182,-0.391C0.189,-0.388 0.193,-0.385 0.196,-0.384C0.198,-0.383 0.202,-0.379 0.209,-0.374C0.223,-0.363 0.253,-0.31 0.3,-0.213C0.347,-0.117 0.37,-0.062 0.37,-0.048ZM0.249,-0.119C0.245,-0.145 0.235,-0.172 0.218,-0.199C0.204,-0.219 0.185,-0.241 0.162,-0.264L0.13,-0.187C0.125,-0.172 0.123,-0.153 0.123,-0.133C0.123,-0.114 0.136,-0.105 0.161,-0.105L0.189,-0.105L0.249,-0.119Z" style="fill:none;fill-rule:nonzero;stroke:black;stroke-width:0.04px;" class="xHuyGuzW_21"></path>
                    </g>
                    <g transform="matrix(400,0,0,400,3403.26,16149.1)">
                        <path d="M0.136,-0.012C0.104,-0.007 0.085,-0.003 0.078,-0.002L0.034,0.001C0.034,-0.008 0.033,-0.024 0.032,-0.045C0.031,-0.066 0.03,-0.079 0.03,-0.082L0.03,-0.136C0.03,-0.177 0.032,-0.209 0.036,-0.232C0.04,-0.256 0.047,-0.275 0.055,-0.291C0.063,-0.307 0.075,-0.322 0.09,-0.336C0.106,-0.303 0.116,-0.275 0.119,-0.251C0.122,-0.228 0.124,-0.201 0.124,-0.17L0.124,-0.066C0.124,-0.057 0.125,-0.05 0.126,-0.045C0.127,-0.039 0.131,-0.028 0.136,-0.012Z" style="fill:none;fill-rule:nonzero;stroke:black;stroke-width:0.04px;" class="xHuyGuzW_22"></path>
                    </g>
                    <g transform="matrix(400,0,0,400,3457.66,16149.1)">
                        <path d="M0.317,-0.021C0.306,-0.018 0.288,-0.014 0.263,-0.007C0.247,-0.003 0.233,-0 0.221,0.002C0.208,0.004 0.196,0.006 0.183,0.007C0.17,0.008 0.157,0.009 0.142,0.009C0.115,0.009 0.093,0.006 0.075,-0C0.048,-0.009 0.034,-0.027 0.034,-0.052C0.034,-0.061 0.036,-0.075 0.04,-0.094C0.043,-0.104 0.046,-0.111 0.047,-0.116C0.048,-0.12 0.048,-0.124 0.048,-0.128C0.048,-0.144 0.045,-0.166 0.038,-0.195C0.033,-0.227 0.03,-0.249 0.03,-0.26C0.03,-0.284 0.033,-0.302 0.04,-0.315C0.046,-0.328 0.065,-0.341 0.097,-0.355C0.107,-0.307 0.114,-0.267 0.117,-0.233L0.122,-0.119C0.122,-0.098 0.128,-0.083 0.14,-0.074C0.153,-0.065 0.175,-0.061 0.206,-0.061L0.253,-0.061C0.271,-0.061 0.284,-0.062 0.292,-0.065C0.297,-0.064 0.302,-0.06 0.306,-0.054C0.31,-0.047 0.314,-0.036 0.317,-0.021Z" style="fill:none;fill-rule:nonzero;stroke:black;stroke-width:0.04px;" class="xHuyGuzW_23"></path>
                    </g>
                    <g transform="matrix(400,0,0,400,3579.66,16149.1)">
                        <path d="M0.377,-0.273C0.377,-0.248 0.364,-0.21 0.337,-0.161L0.259,-0.036C0.242,-0.011 0.229,0.01 0.221,0.026C0.212,0.042 0.206,0.055 0.202,0.065L0.179,0.151C0.175,0.168 0.172,0.179 0.17,0.184C0.169,0.189 0.162,0.209 0.151,0.242C0.146,0.255 0.142,0.265 0.139,0.273C0.133,0.286 0.125,0.301 0.114,0.318C0.091,0.353 0.061,0.372 0.024,0.375L0.024,0.343C0.024,0.307 0.035,0.267 0.057,0.224L0.122,0.093C0.131,0.074 0.139,0.056 0.145,0.038C0.151,0.021 0.154,0.007 0.154,-0.003C0.154,-0.018 0.134,-0.057 0.095,-0.12C0.082,-0.141 0.069,-0.162 0.057,-0.182C0.045,-0.202 0.029,-0.227 0.009,-0.257L0.073,-0.283C0.097,-0.232 0.117,-0.197 0.133,-0.176C0.153,-0.149 0.179,-0.126 0.211,-0.105L0.338,-0.336C0.347,-0.327 0.353,-0.321 0.356,-0.317C0.359,-0.313 0.363,-0.308 0.368,-0.301C0.373,-0.294 0.376,-0.285 0.377,-0.273Z" style="fill:none;fill-rule:nonzero;stroke:black;stroke-width:0.04px;" class="xHuyGuzW_24"></path>
                    </g>
                    <g transform="matrix(400,0,0,400,1455.26,16549.1)">
                        <path d="M0.512,-0.093C0.512,-0.082 0.511,-0.073 0.51,-0.066C0.509,-0.059 0.507,-0.049 0.504,-0.036C0.5,-0.025 0.494,-0.016 0.487,-0.009C0.48,-0.003 0.47,0.004 0.459,0.011C0.45,-0.007 0.442,-0.026 0.437,-0.046C0.431,-0.065 0.428,-0.087 0.428,-0.11L0.421,-0.193C0.393,-0.19 0.368,-0.188 0.347,-0.186C0.325,-0.184 0.308,-0.182 0.295,-0.18C0.242,-0.171 0.213,-0.155 0.206,-0.132C0.204,-0.124 0.201,-0.116 0.199,-0.108C0.195,-0.097 0.191,-0.089 0.187,-0.083C0.183,-0.073 0.177,-0.065 0.171,-0.058C0.165,-0.051 0.156,-0.045 0.144,-0.038C0.124,-0.075 0.111,-0.111 0.105,-0.146C0.099,-0.181 0.096,-0.218 0.096,-0.257L0.096,-0.584C0.096,-0.61 0.097,-0.629 0.1,-0.641C0.103,-0.653 0.107,-0.663 0.112,-0.672C0.117,-0.68 0.126,-0.69 0.138,-0.7C0.149,-0.684 0.157,-0.67 0.163,-0.659C0.168,-0.647 0.173,-0.632 0.178,-0.614C0.181,-0.601 0.183,-0.587 0.185,-0.571C0.187,-0.554 0.188,-0.538 0.188,-0.523C0.186,-0.501 0.184,-0.482 0.183,-0.466C0.182,-0.45 0.181,-0.433 0.181,-0.414L0.176,-0.317C0.176,-0.3 0.176,-0.287 0.177,-0.279C0.178,-0.27 0.18,-0.264 0.183,-0.259C0.19,-0.246 0.21,-0.239 0.241,-0.239C0.306,-0.239 0.349,-0.242 0.369,-0.248C0.404,-0.26 0.421,-0.286 0.421,-0.327C0.421,-0.34 0.42,-0.361 0.417,-0.388C0.414,-0.415 0.41,-0.45 0.404,-0.491C0.401,-0.511 0.399,-0.529 0.398,-0.545C0.397,-0.56 0.396,-0.576 0.396,-0.591L0.396,-0.613C0.396,-0.622 0.396,-0.63 0.397,-0.637C0.397,-0.645 0.399,-0.654 0.402,-0.663C0.406,-0.68 0.418,-0.688 0.437,-0.688C0.453,-0.688 0.466,-0.657 0.475,-0.594L0.487,-0.49C0.494,-0.444 0.499,-0.409 0.501,-0.385C0.504,-0.361 0.506,-0.334 0.506,-0.304L0.512,-0.093Z" style="fill:none;fill-rule:nonzero;stroke:black;stroke-width:0.04px;" class="xHuyGuzW_25"></path>
                    </g>
                    <g transform="matrix(400,0,0,400,1668.06,16549.1)">
                        <path d="M0.401,-0.025C0.39,-0.02 0.378,-0.017 0.365,-0.014C0.352,-0.011 0.338,-0.008 0.323,-0.005C0.293,-0.002 0.259,-0 0.222,-0L0.12,-0C0.113,-0.001 0.108,-0.001 0.105,-0.002C0.102,-0.003 0.097,-0.005 0.09,-0.008C0.066,-0.019 0.046,-0.051 0.031,-0.103C0.025,-0.127 0.02,-0.15 0.016,-0.172C0.012,-0.194 0.01,-0.212 0.01,-0.226C0.01,-0.239 0.01,-0.249 0.011,-0.254C0.012,-0.259 0.015,-0.268 0.02,-0.283C0.025,-0.297 0.037,-0.312 0.054,-0.326C0.063,-0.322 0.073,-0.318 0.082,-0.314C0.09,-0.309 0.098,-0.305 0.106,-0.301C0.121,-0.292 0.135,-0.288 0.148,-0.288C0.158,-0.288 0.167,-0.289 0.175,-0.29C0.184,-0.291 0.195,-0.292 0.208,-0.295C0.235,-0.301 0.256,-0.304 0.269,-0.304C0.3,-0.304 0.324,-0.288 0.341,-0.255C0.332,-0.25 0.321,-0.247 0.306,-0.244C0.291,-0.241 0.272,-0.238 0.249,-0.236C0.196,-0.23 0.163,-0.218 0.151,-0.2L0.165,-0.199L0.308,-0.199C0.314,-0.199 0.32,-0.199 0.327,-0.198C0.334,-0.197 0.343,-0.196 0.354,-0.193C0.339,-0.151 0.307,-0.13 0.26,-0.13L0.216,-0.13L0.185,-0.133C0.159,-0.133 0.146,-0.123 0.146,-0.102C0.146,-0.078 0.18,-0.066 0.249,-0.066C0.288,-0.066 0.32,-0.063 0.344,-0.056C0.368,-0.049 0.387,-0.039 0.401,-0.025Z" style="fill:none;fill-rule:nonzero;stroke:black;stroke-width:0.04px;" class="xHuyGuzW_26"></path>
                    </g>
                    <g transform="matrix(400,0,0,400,2021.66,16549.1)">
                        <path d="M0.315,-0.189C0.315,-0.155 0.297,-0.115 0.26,-0.069C0.22,-0.017 0.181,0.009 0.144,0.009C0.13,0.009 0.118,0.002 0.107,-0.012C0.105,-0.016 0.103,-0.021 0.101,-0.028C0.099,-0.034 0.098,-0.042 0.098,-0.051C0.098,-0.064 0.099,-0.072 0.101,-0.076L0.107,-0.096C0.12,-0.093 0.129,-0.091 0.134,-0.09C0.139,-0.089 0.145,-0.088 0.152,-0.088C0.175,-0.088 0.193,-0.096 0.208,-0.113C0.223,-0.13 0.23,-0.148 0.23,-0.169C0.23,-0.18 0.221,-0.186 0.204,-0.186C0.189,-0.186 0.173,-0.184 0.154,-0.179C0.107,-0.166 0.076,-0.159 0.061,-0.159C0.045,-0.159 0.032,-0.162 0.023,-0.168C0.01,-0.177 0.004,-0.188 0.004,-0.201C0.004,-0.216 0.034,-0.259 0.093,-0.33C0.156,-0.405 0.202,-0.442 0.232,-0.442C0.239,-0.442 0.245,-0.441 0.251,-0.44C0.256,-0.438 0.264,-0.434 0.275,-0.427C0.252,-0.405 0.233,-0.385 0.216,-0.367C0.204,-0.354 0.193,-0.342 0.183,-0.33C0.17,-0.314 0.159,-0.299 0.15,-0.285C0.141,-0.272 0.133,-0.258 0.127,-0.245L0.167,-0.249L0.221,-0.253C0.249,-0.253 0.271,-0.249 0.287,-0.24C0.306,-0.232 0.315,-0.215 0.315,-0.189Z" style="fill:none;fill-rule:nonzero;stroke:black;stroke-width:0.04px;" class="xHuyGuzW_27"></path>
                    </g>
                    <g transform="matrix(400,0,0,400,2143.66,16549.1)">
                        <path d="M0.37,-0.048C0.37,-0.036 0.367,-0.027 0.362,-0.022C0.358,-0.013 0.348,-0.009 0.332,-0.009C0.321,-0.009 0.301,-0.016 0.272,-0.029C0.249,-0.042 0.222,-0.048 0.192,-0.048C0.177,-0.048 0.162,-0.047 0.149,-0.044C0.135,-0.041 0.122,-0.037 0.11,-0.031C0.097,-0.025 0.084,-0.019 0.07,-0.013C0.056,-0.008 0.043,-0.003 0.03,0C0.023,-0.013 0.02,-0.026 0.02,-0.04C0.02,-0.054 0.035,-0.114 0.067,-0.217C0.098,-0.321 0.116,-0.377 0.122,-0.384C0.127,-0.391 0.138,-0.395 0.154,-0.395C0.166,-0.395 0.175,-0.394 0.182,-0.391C0.189,-0.388 0.193,-0.385 0.196,-0.384C0.198,-0.383 0.202,-0.379 0.209,-0.374C0.223,-0.363 0.253,-0.31 0.3,-0.213C0.347,-0.117 0.37,-0.062 0.37,-0.048ZM0.249,-0.119C0.245,-0.145 0.235,-0.172 0.218,-0.199C0.204,-0.219 0.185,-0.241 0.162,-0.264L0.13,-0.187C0.125,-0.172 0.123,-0.153 0.123,-0.133C0.123,-0.114 0.136,-0.105 0.161,-0.105L0.189,-0.105L0.249,-0.119Z" style="fill:none;fill-rule:nonzero;stroke:black;stroke-width:0.04px;" class="xHuyGuzW_28"></path>
                    </g>
                    <g transform="matrix(400,0,0,400,2292.46,16549.1)">
                        <path d="M0.441,-0.063C0.441,-0.055 0.433,-0.046 0.416,-0.038C0.399,-0.029 0.376,-0.023 0.345,-0.018C0.282,-0.009 0.209,-0.005 0.124,-0.005C0.091,-0.005 0.066,-0.009 0.049,-0.017C0.025,-0.028 0.013,-0.047 0.013,-0.074C0.013,-0.083 0.014,-0.09 0.015,-0.094C0.016,-0.099 0.018,-0.104 0.023,-0.111C0.027,-0.118 0.03,-0.123 0.033,-0.127C0.038,-0.134 0.043,-0.14 0.048,-0.145C0.072,-0.168 0.122,-0.204 0.198,-0.252C0.239,-0.279 0.272,-0.299 0.299,-0.314C0.326,-0.328 0.348,-0.338 0.367,-0.344L0.38,-0.316L0.386,-0.295C0.386,-0.285 0.382,-0.276 0.375,-0.266C0.372,-0.264 0.369,-0.261 0.366,-0.258C0.362,-0.255 0.356,-0.251 0.347,-0.246L0.208,-0.171C0.165,-0.143 0.131,-0.113 0.106,-0.08C0.137,-0.071 0.166,-0.067 0.193,-0.067C0.217,-0.067 0.248,-0.072 0.285,-0.081C0.303,-0.085 0.321,-0.09 0.34,-0.095C0.358,-0.101 0.377,-0.106 0.396,-0.113C0.409,-0.113 0.42,-0.107 0.428,-0.094C0.437,-0.084 0.441,-0.073 0.441,-0.063Z" style="fill:none;fill-rule:nonzero;stroke:black;stroke-width:0.04px;" class="xHuyGuzW_29"></path>
                    </g>
                    <g transform="matrix(400,0,0,400,2464.46,16549.1)">
                        <path d="M0.519,0.001L0.492,0.001L0.457,-0.002L0.406,-0.064C0.389,-0.083 0.367,-0.092 0.34,-0.092C0.322,-0.092 0.304,-0.091 0.286,-0.089C0.263,-0.085 0.244,-0.082 0.23,-0.08C0.179,-0.075 0.152,-0.07 0.147,-0.065C0.144,-0.058 0.141,-0.052 0.139,-0.046C0.136,-0.039 0.133,-0.033 0.13,-0.028C0.12,-0.009 0.105,0.001 0.085,0.001C0.064,0.001 0.047,-0.021 0.033,-0.065C0.022,-0.106 0.016,-0.156 0.016,-0.214C0.016,-0.22 0.017,-0.226 0.02,-0.232C0.023,-0.237 0.026,-0.242 0.03,-0.247C0.037,-0.251 0.081,-0.258 0.162,-0.267L0.3,-0.281C0.324,-0.281 0.349,-0.278 0.374,-0.273C0.411,-0.263 0.43,-0.248 0.43,-0.228C0.43,-0.222 0.427,-0.215 0.42,-0.206C0.413,-0.198 0.403,-0.189 0.388,-0.178L0.357,-0.154C0.403,-0.145 0.439,-0.132 0.466,-0.114C0.483,-0.102 0.497,-0.086 0.505,-0.068C0.515,-0.049 0.519,-0.027 0.519,0.001ZM0.3,-0.214L0.28,-0.216L0.239,-0.217C0.202,-0.217 0.172,-0.214 0.149,-0.209C0.114,-0.203 0.096,-0.191 0.096,-0.172C0.096,-0.164 0.1,-0.157 0.108,-0.15C0.116,-0.142 0.128,-0.139 0.143,-0.139C0.166,-0.139 0.197,-0.149 0.236,-0.169C0.267,-0.184 0.288,-0.199 0.3,-0.214Z" style="fill:none;fill-rule:nonzero;stroke:black;stroke-width:0.04px;" class="xHuyGuzW_30"></path>
                    </g>
                    <g transform="matrix(400,0,0,400,2668.06,16549.1)">
                        <path d="M0.136,-0.012C0.104,-0.007 0.085,-0.003 0.078,-0.002L0.034,0.001C0.034,-0.008 0.033,-0.024 0.032,-0.045C0.031,-0.066 0.03,-0.079 0.03,-0.082L0.03,-0.136C0.03,-0.177 0.032,-0.209 0.036,-0.232C0.04,-0.256 0.047,-0.275 0.055,-0.291C0.063,-0.307 0.075,-0.322 0.09,-0.336C0.106,-0.303 0.116,-0.275 0.119,-0.251C0.122,-0.228 0.124,-0.201 0.124,-0.17L0.124,-0.066C0.124,-0.057 0.125,-0.05 0.126,-0.045C0.127,-0.039 0.131,-0.028 0.136,-0.012Z" style="fill:none;fill-rule:nonzero;stroke:black;stroke-width:0.04px;" class="xHuyGuzW_31"></path>
                    </g>
                    <g transform="matrix(400,0,0,400,2722.46,16549.1)">
                        <path d="M0.374,-0.239C0.369,-0.193 0.33,-0.161 0.259,-0.143L0.113,-0.124L0.119,-0.101C0.124,-0.086 0.126,-0.074 0.126,-0.063C0.126,-0.053 0.125,-0.045 0.122,-0.038C0.118,-0.032 0.113,-0.026 0.105,-0.019C0.096,-0.013 0.078,-0.006 0.049,0C0.046,-0.014 0.042,-0.034 0.037,-0.06C0.032,-0.086 0.029,-0.104 0.027,-0.114C0.022,-0.147 0.02,-0.18 0.02,-0.212C0.02,-0.26 0.023,-0.289 0.029,-0.3C0.034,-0.311 0.052,-0.317 0.082,-0.317L0.125,-0.316C0.142,-0.316 0.161,-0.318 0.182,-0.323C0.237,-0.336 0.27,-0.342 0.281,-0.342C0.297,-0.342 0.311,-0.339 0.323,-0.334C0.335,-0.328 0.346,-0.317 0.357,-0.302C0.323,-0.297 0.289,-0.291 0.255,-0.286C0.208,-0.278 0.176,-0.27 0.159,-0.263C0.12,-0.249 0.1,-0.234 0.1,-0.219C0.1,-0.209 0.105,-0.202 0.116,-0.198C0.126,-0.194 0.139,-0.192 0.154,-0.192C0.174,-0.192 0.199,-0.195 0.228,-0.201C0.233,-0.201 0.281,-0.214 0.374,-0.239Z" style="fill:none;fill-rule:nonzero;stroke:black;stroke-width:0.04px;" class="xHuyGuzW_32"></path>
                    </g>
                    <g transform="matrix(400,0,0,400,2867.26,16549.1)">
                        <path d="M0.136,-0.012C0.104,-0.007 0.085,-0.003 0.078,-0.002L0.034,0.001C0.034,-0.008 0.033,-0.024 0.032,-0.045C0.031,-0.066 0.03,-0.079 0.03,-0.082L0.03,-0.136C0.03,-0.177 0.032,-0.209 0.036,-0.232C0.04,-0.256 0.047,-0.275 0.055,-0.291C0.063,-0.307 0.075,-0.322 0.09,-0.336C0.106,-0.303 0.116,-0.275 0.119,-0.251C0.122,-0.228 0.124,-0.201 0.124,-0.17L0.124,-0.066C0.124,-0.057 0.125,-0.05 0.126,-0.045C0.127,-0.039 0.131,-0.028 0.136,-0.012Z" style="fill:none;fill-rule:nonzero;stroke:black;stroke-width:0.04px;" class="xHuyGuzW_33"></path>
                    </g>
                    <g transform="matrix(400,0,0,400,2921.66,16549.1)">
                        <path d="M0.441,-0.063C0.441,-0.055 0.433,-0.046 0.416,-0.038C0.399,-0.029 0.376,-0.023 0.345,-0.018C0.282,-0.009 0.209,-0.005 0.124,-0.005C0.091,-0.005 0.066,-0.009 0.049,-0.017C0.025,-0.028 0.013,-0.047 0.013,-0.074C0.013,-0.083 0.014,-0.09 0.015,-0.094C0.016,-0.099 0.018,-0.104 0.023,-0.111C0.027,-0.118 0.03,-0.123 0.033,-0.127C0.038,-0.134 0.043,-0.14 0.048,-0.145C0.072,-0.168 0.122,-0.204 0.198,-0.252C0.239,-0.279 0.272,-0.299 0.299,-0.314C0.326,-0.328 0.348,-0.338 0.367,-0.344L0.38,-0.316L0.386,-0.295C0.386,-0.285 0.382,-0.276 0.375,-0.266C0.372,-0.264 0.369,-0.261 0.366,-0.258C0.362,-0.255 0.356,-0.251 0.347,-0.246L0.208,-0.171C0.165,-0.143 0.131,-0.113 0.106,-0.08C0.137,-0.071 0.166,-0.067 0.193,-0.067C0.217,-0.067 0.248,-0.072 0.285,-0.081C0.303,-0.085 0.321,-0.09 0.34,-0.095C0.358,-0.101 0.377,-0.106 0.396,-0.113C0.409,-0.113 0.42,-0.107 0.428,-0.094C0.437,-0.084 0.441,-0.073 0.441,-0.063Z" style="fill:none;fill-rule:nonzero;stroke:black;stroke-width:0.04px;" class="xHuyGuzW_34"></path>
                    </g>
                    <g transform="matrix(400,0,0,400,3093.66,16549.1)">
                        <path d="M0.401,-0.025C0.39,-0.02 0.378,-0.017 0.365,-0.014C0.352,-0.011 0.338,-0.008 0.323,-0.005C0.293,-0.002 0.259,-0 0.222,-0L0.12,-0C0.113,-0.001 0.108,-0.001 0.105,-0.002C0.102,-0.003 0.097,-0.005 0.09,-0.008C0.066,-0.019 0.046,-0.051 0.031,-0.103C0.025,-0.127 0.02,-0.15 0.016,-0.172C0.012,-0.194 0.01,-0.212 0.01,-0.226C0.01,-0.239 0.01,-0.249 0.011,-0.254C0.012,-0.259 0.015,-0.268 0.02,-0.283C0.025,-0.297 0.037,-0.312 0.054,-0.326C0.063,-0.322 0.073,-0.318 0.082,-0.314C0.09,-0.309 0.098,-0.305 0.106,-0.301C0.121,-0.292 0.135,-0.288 0.148,-0.288C0.158,-0.288 0.167,-0.289 0.175,-0.29C0.184,-0.291 0.195,-0.292 0.208,-0.295C0.235,-0.301 0.256,-0.304 0.269,-0.304C0.3,-0.304 0.324,-0.288 0.341,-0.255C0.332,-0.25 0.321,-0.247 0.306,-0.244C0.291,-0.241 0.272,-0.238 0.249,-0.236C0.196,-0.23 0.163,-0.218 0.151,-0.2L0.165,-0.199L0.308,-0.199C0.314,-0.199 0.32,-0.199 0.327,-0.198C0.334,-0.197 0.343,-0.196 0.354,-0.193C0.339,-0.151 0.307,-0.13 0.26,-0.13L0.216,-0.13L0.185,-0.133C0.159,-0.133 0.146,-0.123 0.146,-0.102C0.146,-0.078 0.18,-0.066 0.249,-0.066C0.288,-0.066 0.32,-0.063 0.344,-0.056C0.368,-0.049 0.387,-0.039 0.401,-0.025Z" style="fill:none;fill-rule:nonzero;stroke:black;stroke-width:0.04px;" class="xHuyGuzW_35"></path>
                    </g>
                    <g transform="matrix(400,0,0,400,3247.26,16549.1)">
                        <path d="M0.48,-0.178C0.48,-0.141 0.427,-0.1 0.32,-0.057C0.271,-0.039 0.229,-0.025 0.193,-0.016C0.157,-0.007 0.127,-0.002 0.102,-0.002C0.083,-0.002 0.07,-0.009 0.063,-0.024C0.062,-0.029 0.06,-0.035 0.059,-0.043C0.058,-0.05 0.057,-0.058 0.057,-0.065L0.057,-0.204C0.057,-0.211 0.052,-0.224 0.043,-0.243C0.036,-0.254 0.032,-0.262 0.029,-0.266C0.024,-0.275 0.021,-0.282 0.018,-0.288C0.021,-0.302 0.028,-0.31 0.039,-0.313C0.049,-0.315 0.062,-0.316 0.079,-0.316C0.118,-0.316 0.156,-0.314 0.193,-0.31C0.229,-0.306 0.267,-0.299 0.308,-0.289C0.423,-0.261 0.48,-0.224 0.48,-0.178ZM0.391,-0.186C0.391,-0.2 0.363,-0.213 0.306,-0.224C0.249,-0.234 0.205,-0.24 0.175,-0.24C0.148,-0.24 0.134,-0.228 0.134,-0.205C0.134,-0.194 0.134,-0.184 0.135,-0.175C0.136,-0.166 0.137,-0.156 0.14,-0.146L0.153,-0.093C0.192,-0.098 0.219,-0.103 0.235,-0.106C0.252,-0.109 0.267,-0.113 0.28,-0.116C0.293,-0.118 0.306,-0.123 0.319,-0.129C0.332,-0.134 0.344,-0.14 0.356,-0.147C0.358,-0.148 0.362,-0.151 0.367,-0.155C0.372,-0.159 0.375,-0.163 0.378,-0.166C0.387,-0.173 0.391,-0.18 0.391,-0.186Z" style="fill:none;fill-rule:nonzero;stroke:black;stroke-width:0.04px;" class="xHuyGuzW_36"></path>
                    </g>
                    <g transform="matrix(400,0,0,400,3636.86,16549.1)">
                        <path d="M0.401,-0.025C0.39,-0.02 0.378,-0.017 0.365,-0.014C0.352,-0.011 0.338,-0.008 0.323,-0.005C0.293,-0.002 0.259,-0 0.222,-0L0.12,-0C0.113,-0.001 0.108,-0.001 0.105,-0.002C0.102,-0.003 0.097,-0.005 0.09,-0.008C0.066,-0.019 0.046,-0.051 0.031,-0.103C0.025,-0.127 0.02,-0.15 0.016,-0.172C0.012,-0.194 0.01,-0.212 0.01,-0.226C0.01,-0.239 0.01,-0.249 0.011,-0.254C0.012,-0.259 0.015,-0.268 0.02,-0.283C0.025,-0.297 0.037,-0.312 0.054,-0.326C0.063,-0.322 0.073,-0.318 0.082,-0.314C0.09,-0.309 0.098,-0.305 0.106,-0.301C0.121,-0.292 0.135,-0.288 0.148,-0.288C0.158,-0.288 0.167,-0.289 0.175,-0.29C0.184,-0.291 0.195,-0.292 0.208,-0.295C0.235,-0.301 0.256,-0.304 0.269,-0.304C0.3,-0.304 0.324,-0.288 0.341,-0.255C0.332,-0.25 0.321,-0.247 0.306,-0.244C0.291,-0.241 0.272,-0.238 0.249,-0.236C0.196,-0.23 0.163,-0.218 0.151,-0.2L0.165,-0.199L0.308,-0.199C0.314,-0.199 0.32,-0.199 0.327,-0.198C0.334,-0.197 0.343,-0.196 0.354,-0.193C0.339,-0.151 0.307,-0.13 0.26,-0.13L0.216,-0.13L0.185,-0.133C0.159,-0.133 0.146,-0.123 0.146,-0.102C0.146,-0.078 0.18,-0.066 0.249,-0.066C0.288,-0.066 0.32,-0.063 0.344,-0.056C0.368,-0.049 0.387,-0.039 0.401,-0.025Z" style="fill:none;fill-rule:nonzero;stroke:black;stroke-width:0.04px;" class="xHuyGuzW_37"></path>
                    </g>
                    <g transform="matrix(400,0,0,400,3790.46,16549.1)">
                        <path d="M0.489,-0.434C0.467,-0.412 0.417,-0.386 0.34,-0.354C0.308,-0.341 0.29,-0.332 0.287,-0.327C0.284,-0.323 0.281,-0.315 0.278,-0.303L0.275,-0.265C0.275,-0.259 0.275,-0.249 0.276,-0.238C0.277,-0.226 0.278,-0.212 0.28,-0.195L0.285,-0.12C0.285,-0.085 0.28,-0.058 0.271,-0.038C0.264,-0.023 0.256,-0.011 0.245,-0.002C0.234,0.006 0.219,0.013 0.198,0.019C0.192,-0.002 0.189,-0.015 0.188,-0.019L0.187,-0.053C0.187,-0.063 0.187,-0.073 0.188,-0.085C0.188,-0.096 0.191,-0.118 0.196,-0.151C0.198,-0.165 0.2,-0.181 0.203,-0.199C0.205,-0.216 0.206,-0.232 0.206,-0.247C0.206,-0.263 0.203,-0.274 0.196,-0.28C0.189,-0.285 0.178,-0.287 0.162,-0.287L0.126,-0.284L0.084,-0.281C0.066,-0.281 0.051,-0.284 0.04,-0.291C0.028,-0.298 0.017,-0.31 0.006,-0.328L0.082,-0.342L0.191,-0.358C0.228,-0.365 0.272,-0.379 0.321,-0.4L0.452,-0.463L0.489,-0.434Z" style="fill:none;fill-rule:nonzero;stroke:black;stroke-width:0.04px;" class="xHuyGuzW_38"></path>
                    </g>
                    <g transform="matrix(400,0,0,400,3980.06,16549.1)">
                        <path d="M0.401,-0.025C0.39,-0.02 0.378,-0.017 0.365,-0.014C0.352,-0.011 0.338,-0.008 0.323,-0.005C0.293,-0.002 0.259,-0 0.222,-0L0.12,-0C0.113,-0.001 0.108,-0.001 0.105,-0.002C0.102,-0.003 0.097,-0.005 0.09,-0.008C0.066,-0.019 0.046,-0.051 0.031,-0.103C0.025,-0.127 0.02,-0.15 0.016,-0.172C0.012,-0.194 0.01,-0.212 0.01,-0.226C0.01,-0.239 0.01,-0.249 0.011,-0.254C0.012,-0.259 0.015,-0.268 0.02,-0.283C0.025,-0.297 0.037,-0.312 0.054,-0.326C0.063,-0.322 0.073,-0.318 0.082,-0.314C0.09,-0.309 0.098,-0.305 0.106,-0.301C0.121,-0.292 0.135,-0.288 0.148,-0.288C0.158,-0.288 0.167,-0.289 0.175,-0.29C0.184,-0.291 0.195,-0.292 0.208,-0.295C0.235,-0.301 0.256,-0.304 0.269,-0.304C0.3,-0.304 0.324,-0.288 0.341,-0.255C0.332,-0.25 0.321,-0.247 0.306,-0.244C0.291,-0.241 0.272,-0.238 0.249,-0.236C0.196,-0.23 0.163,-0.218 0.151,-0.2L0.165,-0.199L0.308,-0.199C0.314,-0.199 0.32,-0.199 0.327,-0.198C0.334,-0.197 0.343,-0.196 0.354,-0.193C0.339,-0.151 0.307,-0.13 0.26,-0.13L0.216,-0.13L0.185,-0.133C0.159,-0.133 0.146,-0.123 0.146,-0.102C0.146,-0.078 0.18,-0.066 0.249,-0.066C0.288,-0.066 0.32,-0.063 0.344,-0.056C0.368,-0.049 0.387,-0.039 0.401,-0.025Z" style="fill:none;fill-rule:nonzero;stroke:black;stroke-width:0.04px;" class="xHuyGuzW_39"></path>
                    </g>
                    <g transform="matrix(400,0,0,400,4133.66,16549.1)">
                        <path d="M0.519,0.001L0.492,0.001L0.457,-0.002L0.406,-0.064C0.389,-0.083 0.367,-0.092 0.34,-0.092C0.322,-0.092 0.304,-0.091 0.286,-0.089C0.263,-0.085 0.244,-0.082 0.23,-0.08C0.179,-0.075 0.152,-0.07 0.147,-0.065C0.144,-0.058 0.141,-0.052 0.139,-0.046C0.136,-0.039 0.133,-0.033 0.13,-0.028C0.12,-0.009 0.105,0.001 0.085,0.001C0.064,0.001 0.047,-0.021 0.033,-0.065C0.022,-0.106 0.016,-0.156 0.016,-0.214C0.016,-0.22 0.017,-0.226 0.02,-0.232C0.023,-0.237 0.026,-0.242 0.03,-0.247C0.037,-0.251 0.081,-0.258 0.162,-0.267L0.3,-0.281C0.324,-0.281 0.349,-0.278 0.374,-0.273C0.411,-0.263 0.43,-0.248 0.43,-0.228C0.43,-0.222 0.427,-0.215 0.42,-0.206C0.413,-0.198 0.403,-0.189 0.388,-0.178L0.357,-0.154C0.403,-0.145 0.439,-0.132 0.466,-0.114C0.483,-0.102 0.497,-0.086 0.505,-0.068C0.515,-0.049 0.519,-0.027 0.519,0.001ZM0.3,-0.214L0.28,-0.216L0.239,-0.217C0.202,-0.217 0.172,-0.214 0.149,-0.209C0.114,-0.203 0.096,-0.191 0.096,-0.172C0.096,-0.164 0.1,-0.157 0.108,-0.15C0.116,-0.142 0.128,-0.139 0.143,-0.139C0.166,-0.139 0.197,-0.149 0.236,-0.169C0.267,-0.184 0.288,-0.199 0.3,-0.214Z" style="fill:none;fill-rule:nonzero;stroke:black;stroke-width:0.04px;" class="xHuyGuzW_40"></path>
                    </g>
                    <g transform="matrix(400,0,0,400,4337.26,16549.1)">
                        <path d="M0.462,-0.282C0.462,-0.271 0.46,-0.257 0.455,-0.239L0.449,-0.205C0.449,-0.194 0.45,-0.18 0.453,-0.165L0.461,-0.092C0.461,-0.059 0.45,-0.032 0.427,-0.009C0.402,0.012 0.371,0.023 0.332,0.023C0.314,0.023 0.296,0.021 0.278,0.016C0.259,0.011 0.239,0.003 0.218,-0.008C0.19,-0.022 0.164,-0.04 0.141,-0.061C0.133,-0.04 0.124,-0.027 0.115,-0.022C0.11,-0.018 0.102,-0.015 0.089,-0.012C0.076,-0.01 0.058,-0.009 0.035,-0.009L0.033,-0.131C0.033,-0.155 0.033,-0.174 0.034,-0.19C0.035,-0.205 0.036,-0.219 0.039,-0.232C0.041,-0.248 0.045,-0.262 0.05,-0.275C0.055,-0.288 0.065,-0.305 0.078,-0.326C0.099,-0.302 0.123,-0.26 0.151,-0.198C0.172,-0.15 0.196,-0.114 0.221,-0.091C0.246,-0.068 0.276,-0.056 0.31,-0.056C0.345,-0.056 0.368,-0.096 0.38,-0.175C0.386,-0.219 0.395,-0.253 0.406,-0.276C0.417,-0.299 0.428,-0.31 0.44,-0.31C0.446,-0.31 0.451,-0.308 0.456,-0.303L0.462,-0.282Z" style="fill:none;fill-rule:nonzero;stroke:black;stroke-width:0.04px;" class="xHuyGuzW_41"></path>
                    </g>
                    <g transform="matrix(400,0,0,400,4517.66,16549.1)">
                        <path d="M0.37,-0.048C0.37,-0.036 0.367,-0.027 0.362,-0.022C0.358,-0.013 0.348,-0.009 0.332,-0.009C0.321,-0.009 0.301,-0.016 0.272,-0.029C0.249,-0.042 0.222,-0.048 0.192,-0.048C0.177,-0.048 0.162,-0.047 0.149,-0.044C0.135,-0.041 0.122,-0.037 0.11,-0.031C0.097,-0.025 0.084,-0.019 0.07,-0.013C0.056,-0.008 0.043,-0.003 0.03,0C0.023,-0.013 0.02,-0.026 0.02,-0.04C0.02,-0.054 0.035,-0.114 0.067,-0.217C0.098,-0.321 0.116,-0.377 0.122,-0.384C0.127,-0.391 0.138,-0.395 0.154,-0.395C0.166,-0.395 0.175,-0.394 0.182,-0.391C0.189,-0.388 0.193,-0.385 0.196,-0.384C0.198,-0.383 0.202,-0.379 0.209,-0.374C0.223,-0.363 0.253,-0.31 0.3,-0.213C0.347,-0.117 0.37,-0.062 0.37,-0.048ZM0.249,-0.119C0.245,-0.145 0.235,-0.172 0.218,-0.199C0.204,-0.219 0.185,-0.241 0.162,-0.264L0.13,-0.187C0.125,-0.172 0.123,-0.153 0.123,-0.133C0.123,-0.114 0.136,-0.105 0.161,-0.105L0.189,-0.105L0.249,-0.119Z" style="fill:none;fill-rule:nonzero;stroke:black;stroke-width:0.04px;" class="xHuyGuzW_42"></path>
                    </g>
                    <g transform="matrix(400,0,0,400,4666.46,16549.1)">
                        <path d="M0.317,-0.021C0.306,-0.018 0.288,-0.014 0.263,-0.007C0.247,-0.003 0.233,-0 0.221,0.002C0.208,0.004 0.196,0.006 0.183,0.007C0.17,0.008 0.157,0.009 0.142,0.009C0.115,0.009 0.093,0.006 0.075,-0C0.048,-0.009 0.034,-0.027 0.034,-0.052C0.034,-0.061 0.036,-0.075 0.04,-0.094C0.043,-0.104 0.046,-0.111 0.047,-0.116C0.048,-0.12 0.048,-0.124 0.048,-0.128C0.048,-0.144 0.045,-0.166 0.038,-0.195C0.033,-0.227 0.03,-0.249 0.03,-0.26C0.03,-0.284 0.033,-0.302 0.04,-0.315C0.046,-0.328 0.065,-0.341 0.097,-0.355C0.107,-0.307 0.114,-0.267 0.117,-0.233L0.122,-0.119C0.122,-0.098 0.128,-0.083 0.14,-0.074C0.153,-0.065 0.175,-0.061 0.206,-0.061L0.253,-0.061C0.271,-0.061 0.284,-0.062 0.292,-0.065C0.297,-0.064 0.302,-0.06 0.306,-0.054C0.31,-0.047 0.314,-0.036 0.317,-0.021Z" style="fill:none;fill-rule:nonzero;stroke:black;stroke-width:0.04px;" class="xHuyGuzW_43"></path>
                    </g>
                    <g transform="matrix(400,0,0,400,4788.46,16549.1)">
                        <path d="M0.317,-0.021C0.306,-0.018 0.288,-0.014 0.263,-0.007C0.247,-0.003 0.233,-0 0.221,0.002C0.208,0.004 0.196,0.006 0.183,0.007C0.17,0.008 0.157,0.009 0.142,0.009C0.115,0.009 0.093,0.006 0.075,-0C0.048,-0.009 0.034,-0.027 0.034,-0.052C0.034,-0.061 0.036,-0.075 0.04,-0.094C0.043,-0.104 0.046,-0.111 0.047,-0.116C0.048,-0.12 0.048,-0.124 0.048,-0.128C0.048,-0.144 0.045,-0.166 0.038,-0.195C0.033,-0.227 0.03,-0.249 0.03,-0.26C0.03,-0.284 0.033,-0.302 0.04,-0.315C0.046,-0.328 0.065,-0.341 0.097,-0.355C0.107,-0.307 0.114,-0.267 0.117,-0.233L0.122,-0.119C0.122,-0.098 0.128,-0.083 0.14,-0.074C0.153,-0.065 0.175,-0.061 0.206,-0.061L0.253,-0.061C0.271,-0.061 0.284,-0.062 0.292,-0.065C0.297,-0.064 0.302,-0.06 0.306,-0.054C0.31,-0.047 0.314,-0.036 0.317,-0.021Z" style="fill:none;fill-rule:nonzero;stroke:black;stroke-width:0.04px;" class="xHuyGuzW_44"></path>
                    </g>
                    <g transform="matrix(400,0,0,400,4910.46,16549.1)">
                        <path d="M0.377,-0.273C0.377,-0.248 0.364,-0.21 0.337,-0.161L0.259,-0.036C0.242,-0.011 0.229,0.01 0.221,0.026C0.212,0.042 0.206,0.055 0.202,0.065L0.179,0.151C0.175,0.168 0.172,0.179 0.17,0.184C0.169,0.189 0.162,0.209 0.151,0.242C0.146,0.255 0.142,0.265 0.139,0.273C0.133,0.286 0.125,0.301 0.114,0.318C0.091,0.353 0.061,0.372 0.024,0.375L0.024,0.343C0.024,0.307 0.035,0.267 0.057,0.224L0.122,0.093C0.131,0.074 0.139,0.056 0.145,0.038C0.151,0.021 0.154,0.007 0.154,-0.003C0.154,-0.018 0.134,-0.057 0.095,-0.12C0.082,-0.141 0.069,-0.162 0.057,-0.182C0.045,-0.202 0.029,-0.227 0.009,-0.257L0.073,-0.283C0.097,-0.232 0.117,-0.197 0.133,-0.176C0.153,-0.149 0.179,-0.126 0.211,-0.105L0.338,-0.336C0.347,-0.327 0.353,-0.321 0.356,-0.317C0.359,-0.313 0.363,-0.308 0.368,-0.301C0.373,-0.294 0.376,-0.285 0.377,-0.273Z" style="fill:none;fill-rule:nonzero;stroke:black;stroke-width:0.04px;" class="xHuyGuzW_45"></path>
                    </g>
                </g>
                <g transform="matrix(1,0,0,1,-0.851193,-12717.3)">
                    <path d="M976.856,15303.1L976.856,15647.7L976.856,15405.1L898.771,15405.1L1062.93,15405.1L976.856,15405.1" style="fill:none;stroke:black;stroke-width:38.89px;stroke-linecap:round;stroke-miterlimit:1.5;" class="xHuyGuzW_46"></path>
                </g>
                <g transform="matrix(1,0,0,1,3051.28,-12717.3)">
                    <path d="M976.856,15303.1L976.856,15647.7L976.856,15405.1L898.771,15405.1L1062.93,15405.1L976.856,15405.1" style="fill:none;stroke:black;stroke-width:38.89px;stroke-linecap:round;stroke-miterlimit:1.5;" class="xHuyGuzW_47"></path>
                </g>
                <g transform="matrix(1,0,0,1,-6127.53,-21431.8)">
                    <g transform="matrix(400,0,0,400,9584.76,25340.5)">
                        <path width="1" height="0.074" style="fill:none;fill-rule:nonzero;stroke:black;stroke-width:0.04px;" d="M0 -0.337 L1 -0.337 L1 -0.263 L0 -0.263 Z" class="xHuyGuzW_48"></path>
                    </g>
                </g>
            </g>
        </g>
    </g>
<style data-made-with="vivus-instant">.xHuyGuzW_0{stroke-dasharray:20000 20002;stroke-dashoffset:20001;animation:xHuyGuzW_draw 4666ms linear 0ms forwards;}.xHuyGuzW_1{stroke-dasharray:5873 5875;stroke-dashoffset:5874;animation:xHuyGuzW_draw 4666ms linear 48ms forwards;}.xHuyGuzW_2{stroke-dasharray:1052 1054;stroke-dashoffset:1053;animation:xHuyGuzW_draw 4666ms linear 97ms forwards;}.xHuyGuzW_3{stroke-dasharray:1134 1136;stroke-dashoffset:1135;animation:xHuyGuzW_draw 4666ms linear 145ms forwards;}.xHuyGuzW_4{stroke-dasharray:956 958;stroke-dashoffset:957;animation:xHuyGuzW_draw 4666ms linear 194ms forwards;}.xHuyGuzW_5{stroke-dasharray:1147 1149;stroke-dashoffset:1148;animation:xHuyGuzW_draw 4666ms linear 243ms forwards;}.xHuyGuzW_6{stroke-dasharray:955 957;stroke-dashoffset:956;animation:xHuyGuzW_draw 4666ms linear 291ms forwards;}.xHuyGuzW_7{stroke-dasharray:1309 1311;stroke-dashoffset:1310;animation:xHuyGuzW_draw 4666ms linear 340ms forwards;}.xHuyGuzW_8{stroke-dasharray:1494 1496;stroke-dashoffset:1495;animation:xHuyGuzW_draw 4666ms linear 388ms forwards;}.xHuyGuzW_9{stroke-dasharray:3 5;stroke-dashoffset:4;animation:xHuyGuzW_draw 4666ms linear 437ms forwards;}.xHuyGuzW_10{stroke-dasharray:2 4;stroke-dashoffset:3;animation:xHuyGuzW_draw 4666ms linear 486ms forwards;}.xHuyGuzW_11{stroke-dasharray:2 4;stroke-dashoffset:3;animation:xHuyGuzW_draw 4666ms linear 534ms forwards;}.xHuyGuzW_12{stroke-dasharray:2 4;stroke-dashoffset:3;animation:xHuyGuzW_draw 4666ms linear 583ms forwards;}.xHuyGuzW_13{stroke-dasharray:2 4;stroke-dashoffset:3;animation:xHuyGuzW_draw 4666ms linear 631ms forwards;}.xHuyGuzW_14{stroke-dasharray:3 5;stroke-dashoffset:4;animation:xHuyGuzW_draw 4666ms linear 680ms forwards;}.xHuyGuzW_15{stroke-dasharray:1 3;stroke-dashoffset:2;animation:xHuyGuzW_draw 4666ms linear 729ms forwards;}.xHuyGuzW_16{stroke-dasharray:2 4;stroke-dashoffset:3;animation:xHuyGuzW_draw 4666ms linear 777ms forwards;}.xHuyGuzW_17{stroke-dasharray:1 3;stroke-dashoffset:2;animation:xHuyGuzW_draw 4666ms linear 826ms forwards;}.xHuyGuzW_18{stroke-dasharray:2 4;stroke-dashoffset:3;animation:xHuyGuzW_draw 4666ms linear 875ms forwards;}.xHuyGuzW_19{stroke-dasharray:2 4;stroke-dashoffset:3;animation:xHuyGuzW_draw 4666ms linear 923ms forwards;}.xHuyGuzW_20{stroke-dasharray:2 4;stroke-dashoffset:3;animation:xHuyGuzW_draw 4666ms linear 972ms forwards;}.xHuyGuzW_21{stroke-dasharray:2 4;stroke-dashoffset:3;animation:xHuyGuzW_draw 4666ms linear 1020ms forwards;}.xHuyGuzW_22{stroke-dasharray:1 3;stroke-dashoffset:2;animation:xHuyGuzW_draw 4666ms linear 1069ms forwards;}.xHuyGuzW_23{stroke-dasharray:2 4;stroke-dashoffset:3;animation:xHuyGuzW_draw 4666ms linear 1118ms forwards;}.xHuyGuzW_24{stroke-dasharray:3 5;stroke-dashoffset:4;animation:xHuyGuzW_draw 4666ms linear 1166ms forwards;}.xHuyGuzW_25{stroke-dasharray:4 6;stroke-dashoffset:5;animation:xHuyGuzW_draw 4666ms linear 1215ms forwards;}.xHuyGuzW_26{stroke-dasharray:2 4;stroke-dashoffset:3;animation:xHuyGuzW_draw 4666ms linear 1263ms forwards;}.xHuyGuzW_27{stroke-dasharray:2 4;stroke-dashoffset:3;animation:xHuyGuzW_draw 4666ms linear 1312ms forwards;}.xHuyGuzW_28{stroke-dasharray:2 4;stroke-dashoffset:3;animation:xHuyGuzW_draw 4666ms linear 1361ms forwards;}.xHuyGuzW_29{stroke-dasharray:2 4;stroke-dashoffset:3;animation:xHuyGuzW_draw 4666ms linear 1409ms forwards;}.xHuyGuzW_30{stroke-dasharray:3 5;stroke-dashoffset:4;animation:xHuyGuzW_draw 4666ms linear 1458ms forwards;}.xHuyGuzW_31{stroke-dasharray:1 3;stroke-dashoffset:2;animation:xHuyGuzW_draw 4666ms linear 1506ms forwards;}.xHuyGuzW_32{stroke-dasharray:2 4;stroke-dashoffset:3;animation:xHuyGuzW_draw 4666ms linear 1555ms forwards;}.xHuyGuzW_33{stroke-dasharray:1 3;stroke-dashoffset:2;animation:xHuyGuzW_draw 4666ms linear 1604ms forwards;}.xHuyGuzW_34{stroke-dasharray:2 4;stroke-dashoffset:3;animation:xHuyGuzW_draw 4666ms linear 1652ms forwards;}.xHuyGuzW_35{stroke-dasharray:2 4;stroke-dashoffset:3;animation:xHuyGuzW_draw 4666ms linear 1701ms forwards;}.xHuyGuzW_36{stroke-dasharray:2 4;stroke-dashoffset:3;animation:xHuyGuzW_draw 4666ms linear 1750ms forwards;}.xHuyGuzW_37{stroke-dasharray:2 4;stroke-dashoffset:3;animation:xHuyGuzW_draw 4666ms linear 1798ms forwards;}.xHuyGuzW_38{stroke-dasharray:2 4;stroke-dashoffset:3;animation:xHuyGuzW_draw 4666ms linear 1847ms forwards;}.xHuyGuzW_39{stroke-dasharray:2 4;stroke-dashoffset:3;animation:xHuyGuzW_draw 4666ms linear 1895ms forwards;}.xHuyGuzW_40{stroke-dasharray:3 5;stroke-dashoffset:4;animation:xHuyGuzW_draw 4666ms linear 1944ms forwards;}.xHuyGuzW_41{stroke-dasharray:2 4;stroke-dashoffset:3;animation:xHuyGuzW_draw 4666ms linear 1993ms forwards;}.xHuyGuzW_42{stroke-dasharray:2 4;stroke-dashoffset:3;animation:xHuyGuzW_draw 4666ms linear 2041ms forwards;}.xHuyGuzW_43{stroke-dasharray:2 4;stroke-dashoffset:3;animation:xHuyGuzW_draw 4666ms linear 2090ms forwards;}.xHuyGuzW_44{stroke-dasharray:2 4;stroke-dashoffset:3;animation:xHuyGuzW_draw 4666ms linear 2138ms forwards;}.xHuyGuzW_45{stroke-dasharray:3 5;stroke-dashoffset:4;animation:xHuyGuzW_draw 4666ms linear 2187ms forwards;}.xHuyGuzW_46{stroke-dasharray:916 918;stroke-dashoffset:917;animation:xHuyGuzW_draw 4666ms linear 2236ms forwards;}.xHuyGuzW_47{stroke-dasharray:916 918;stroke-dashoffset:917;animation:xHuyGuzW_draw 4666ms linear 2284ms forwards;}.xHuyGuzW_48{stroke-dasharray:3 5;stroke-dashoffset:4;animation:xHuyGuzW_draw 4666ms linear 2333ms forwards;}@keyframes xHuyGuzW_draw{100%{stroke-dashoffset:0;}}@keyframes xHuyGuzW_fade{0%{stroke-opacity:1;}96.42857142857143%{stroke-opacity:1;}100%{stroke-opacity:0;}}</style></svg>
