<?xml version="1.0" encoding="UTF-8" standalone="no"?>
<!DOCTYPE svg PUBLIC "-//W3C//DTD SVG 1.1//EN" "http://www.w3.org/Graphics/SVG/1.1/DTD/svg11.dtd">
<svg width="100%" height="100%" viewBox="0 0 4623 5000" version="1.1" xmlns="http://www.w3.org/2000/svg" xmlns:xlink="http://www.w3.org/1999/xlink" xml:space="preserve" xmlns:serif="http://www.serif.com/" style="fill-rule:evenodd;clip-rule:evenodd;stroke-linejoin:round;stroke-miterlimit:2;">
    <g transform="matrix(1,0,0,1,-19157.1,7.27596e-12)">
        <g transform="matrix(1,0,0,1,18968.5,0)">
            <g transform="matrix(3.38057,0,0,16.9563,-21741.6,-38526.4)">
                <path d="M7045.44,2375.94L6603.26,2375.94L6487.12,2395.22L6603.26,2410.44L6598.78,2410.44C6598.78,2410.44 6563.2,2427.33 6566.65,2445.49C6570.22,2464.32 6615.7,2484.51 6786.11,2488.7L6487.12,2566.97L7734.7,2566.97L7854.59,2549.23L7734.7,2531.02L7246.82,2531.02L7246.82,2488.07L7586.34,2488.07L7734.7,2471.73L7586.34,2455.44L7246.82,2455.44L7246.82,2410.44L7734.7,2410.44L7854.59,2392.89L7734.7,2375.94L7246.82,2375.94L7246.82,2315.98L7150.23,2272.09L7045.44,2315.98L7045.44,2375.94Z" style="fill:white;"/>
            </g>
        </g>
    </g>
</svg>
