<svg width="100%" height="100%" viewBox="0 0 3217 865" version="1.1" xmlns="http://www.w3.org/2000/svg" xmlns:xlink="http://www.w3.org/1999/xlink" xml:space="preserve" xmlns:serif="http://www.serif.com/" style="fill-rule:evenodd;clip-rule:evenodd;stroke-linecap:round;stroke-linejoin:round;stroke-miterlimit:1.5;">
    <g transform="matrix(1,0,0,1,-12640.1,-15176.7)">
        <g transform="matrix(1,0,0,1,11742.3,13101.3)">
            <g transform="matrix(2.02457,0,0,2.02457,-12051.3,-2233.73)">
                <path d="M7466.17,2554.83L7552.17,2306.83L7496.17,2306.83L7437.77,2475.63L7379.37,2306.83L7323.37,2306.83L7409.37,2554.83L7466.17,2554.83Z" style="fill: white;" class="svg-elem-1"></path>
            </g>
        </g>
        <g transform="matrix(1,0,0,1,11742.3,13101.3)">
            <g transform="matrix(2.02457,0,0,2.02457,-12051.3,-2233.73)">
                <path d="M6586.57,2362.83L6586.57,2306.83L6434.57,2306.83L6434.57,2554.83L6586.57,2554.83L6586.57,2498.83L6490.57,2498.83L6490.57,2458.83L6561.37,2458.83L6561.37,2402.83L6490.57,2402.83L6490.57,2362.83L6586.57,2362.83Z" style="fill: white;" class="svg-elem-2"></path>
            </g>
        </g>
        <g transform="matrix(1,0,0,1,11742.3,13101.3)">
            <g transform="matrix(2.02457,0,0,2.02457,-12051.3,-2233.73)">
                <path d="M7038.57,2554.83L7098.97,2554.83L7012.97,2306.83L6951.77,2306.83L6865.77,2554.83L6925.77,2554.83L6959.37,2458.83L7005.37,2458.83L7038.57,2554.83Z" style="fill: white;" class="svg-elem-3"></path>
            </g>
        </g>
        <g transform="matrix(1,0,0,1,11742.3,13101.3)">
            <g transform="matrix(2.02457,0,0,2.02457,-12051.3,-2233.73)">
                <path d="M7762.97,2307.23L7706.97,2307.23L7706.97,2455.63C7706.97,2461.76 7705.9,2467.5 7703.77,2472.83C7701.63,2478.16 7698.77,2482.83 7695.17,2486.83C7691.57,2490.83 7687.37,2493.97 7682.57,2496.23C7677.77,2498.5 7672.57,2499.63 7666.97,2499.63C7661.37,2499.63 7656.1,2498.5 7651.17,2496.23C7646.23,2493.97 7641.97,2490.83 7638.37,2486.83C7634.77,2482.83 7631.9,2478.16 7629.77,2472.83C7627.63,2467.5 7626.57,2461.76 7626.57,2455.63L7626.57,2307.23L7570.57,2307.23L7570.57,2456.83C7570.83,2469.9 7573.3,2482.37 7577.97,2494.23C7582.63,2506.1 7589.37,2516.7 7598.17,2526.03C7607.5,2535.37 7617.97,2542.63 7629.57,2547.83C7641.17,2553.03 7653.5,2555.63 7666.57,2555.63L7666.97,2555.63C7680.03,2555.63 7692.37,2553.03 7703.97,2547.83C7715.57,2542.63 7726.03,2535.37 7735.37,2526.03C7744.17,2516.7 7750.9,2506.1 7755.57,2494.23C7760.23,2482.37 7762.7,2469.9 7762.97,2456.83L7762.97,2307.23Z" style="fill: white;" class="svg-elem-4"></path>
            </g>
        </g>
        <g transform="matrix(1,0,0,1,11742.3,13101.3)">
            <g transform="matrix(-2.02457,0,0,2.02457,19788.6,-2233.73)">
                <path d="M7942.17,2554.83L7894.97,2452.43C7907.77,2446.3 7918.03,2437.16 7925.77,2425.03C7933.5,2412.9 7937.37,2399.23 7937.37,2384.03C7937.37,2373.37 7935.3,2363.37 7931.17,2354.03C7927.03,2344.7 7921.5,2336.5 7914.57,2329.43C7907.63,2322.37 7899.5,2316.83 7890.17,2312.83C7880.83,2308.83 7870.83,2306.83 7860.17,2306.83L7784.57,2306.83L7784.57,2554.83L7840.57,2554.83L7840.57,2460.83L7840.97,2460.83L7884.17,2554.83L7942.17,2554.83Z" style="fill: white;" class="svg-elem-5"></path>
            </g>
        </g>
        <g transform="matrix(1,0,0,1,11742.3,13101.3)">
            <g transform="matrix(2.02457,0,0,2.02457,-12051.3,-2233.73)">
                <path d="M7304.17,2554.83L7304.17,2306.83L7248.17,2306.83L7248.17,2445.23L7178.57,2306.83L7121.37,2306.83L7121.37,2554.83L7177.37,2554.83L7177.37,2416.43L7247.37,2554.83L7304.17,2554.83Z" style="fill: white;" class="svg-elem-6"></path>
            </g>
        </g>
        <g transform="matrix(1,0,0,1,11742.3,13101.3)">
            <g transform="matrix(2.02457,0,0,2.02457,-12051.3,-2233.73)">
                <path d="M6843.37,2307.23L6843.77,2306.83L6787.37,2306.83L6787.37,2307.23L6729.37,2474.43L6671.37,2306.83L6614.57,2306.83L6614.57,2554.83L6670.57,2554.83L6670.57,2465.63L6701.37,2554.83L6757.37,2554.83L6787.37,2468.43L6787.37,2554.83L6843.37,2554.83L6843.37,2307.23Z" style="fill: white;" class="svg-elem-7"></path>
            </g>
        </g>
        <g transform="matrix(1,0,0,1,11742.3,13101.3)">
            <g transform="matrix(1,0,0,1,18.5037,-13208.2)">
                <path d="M976.856,15303.1L976.856,15647.7L976.856,15405.1L898.771,15405.1L1062.93,15405.1L976.856,15405.1" style="fill: white; stroke: white; stroke-width: 38.89px;" class="svg-elem-8"></path>
            </g>
        </g>
        <g transform="matrix(1,0,0,1,11742.3,13101.3)">
            <g transform="matrix(1,0,0,1,3031.83,-13208.2)">
                <path d="M976.856,15303.1L976.856,15647.7L976.856,15405.1L898.771,15405.1L1062.93,15405.1L976.856,15405.1" style="fill: white; stroke: white; stroke-width: 38.89px;" class="svg-elem-9"></path>
            </g>
        </g>
    </g>
    <style>
        @keyframes draw {
            0% {
                stroke-dashoffset: 0;
                fill: transparent;
            }
            50% {
                stroke-dashoffset: 0;
                fill: rgb(255, 255, 255);
            }
            100% {
                stroke-dashoffset: var(--dash-length);
                fill: transparent;
            }
        }

        svg .svg-elem-1 {
            stroke-dasharray: 1053.0093994140625px;
            --dash-length: 2106.018798828125px;
            animation: draw 2s cubic-bezier(0.47, 0, 0.745, 0.715) infinite alternate;
        }
        svg .svg-elem-2 {
            stroke-dasharray: 1135.6005859375px;
            --dash-length: 2271.201171875px;
            animation: draw 2s cubic-bezier(0.47, 0, 0.745, 0.715) 0.12s infinite alternate;
        }
        svg .svg-elem-3 {
            stroke-dasharray: 957.8656005859375px;
            --dash-length: 1915.731201171875px;
            animation: draw 2s cubic-bezier(0.47, 0, 0.745, 0.715) 0.24s infinite alternate;
        }
        svg .svg-elem-4 {
            stroke-dasharray: 1148.3990478515625px;
            --dash-length: 2296.798095703125px;
            animation: draw 2s cubic-bezier(0.47, 0, 0.745, 0.715) 0.36s infinite alternate;
        }
        svg .svg-elem-5 {
            stroke-dasharray: 956.3963623046875px;
            --dash-length: 1912.792724609375px;
            animation: draw 2s cubic-bezier(0.47, 0, 0.745, 0.715) 0.48s infinite alternate;
        }
        svg .svg-elem-6 {
            stroke-dasharray: 1310.8101806640625px;
            --dash-length: 2621.620361328125px;
            animation: draw 2s cubic-bezier(0.47, 0, 0.745, 0.715) 0.6s infinite alternate;
        }
        svg .svg-elem-7 {
            stroke-dasharray: 1495.5205078125px;
            --dash-length: 2991.041015625px;
            animation: draw 2s cubic-bezier(0.47, 0, 0.745, 0.715) 0.72s infinite alternate;
        }
        svg .svg-elem-8 {
            stroke-dasharray: 917.519287109375px;
            --dash-length: 1835.03857421875px;
            animation: draw 2s cubic-bezier(0.47, 0, 0.745, 0.715) 0.84s infinite alternate;
        }
        svg .svg-elem-9 {
            stroke-dasharray: 917.519287109375px;
            --dash-length: 1835.03857421875px;
            animation: draw 2s cubic-bezier(0.47, 0, 0.745, 0.715) 0.96s infinite alternate;
        }
    </style>
</svg>